<svg width="36" height="36" viewBox="0 0 36 36" fill="none" xmlns="http://www.w3.org/2000/svg">
<path d="M30.0459 10.2006L24.4209 4.57564C24.3164 4.47121 24.1923 4.38839 24.0557 4.33193C23.9191 4.27547 23.7728 4.24647 23.625 4.24658H12.375C11.7783 4.24658 11.206 4.48364 10.784 4.90559C10.3621 5.32755 10.125 5.89985 10.125 6.49658V8.74658H7.875C7.27826 8.74658 6.70597 8.98364 6.28401 9.40559C5.86205 9.82755 5.625 10.3998 5.625 10.9966V31.2466C5.625 31.8433 5.86205 32.4156 6.28401 32.8376C6.70597 33.2595 7.27826 33.4966 7.875 33.4966H23.625C24.2217 33.4966 24.794 33.2595 25.216 32.8376C25.6379 32.4156 25.875 31.8433 25.875 31.2466V28.9966H28.125C28.7217 28.9966 29.294 28.7595 29.716 28.3376C30.1379 27.9156 30.375 27.3433 30.375 26.7466V10.9966C30.3751 10.8488 30.3461 10.7024 30.2897 10.5659C30.2332 10.4293 30.1504 10.3052 30.0459 10.2006ZM23.625 31.2466H7.875V10.9966H18.6595L23.625 15.9621V27.8491C23.625 27.8575 23.625 27.8646 23.625 27.8716C23.625 27.8786 23.625 27.8856 23.625 27.8941V31.2466ZM28.125 26.7466H25.875V15.4966C25.8751 15.3488 25.8461 15.2024 25.7897 15.0659C25.7332 14.9293 25.6504 14.8052 25.5459 14.7006L19.9209 9.07564C19.8164 8.97121 19.6923 8.88839 19.5557 8.83193C19.4191 8.77547 19.2728 8.74647 19.125 8.74658H12.375V6.49658H23.1595L28.125 11.4621V26.7466ZM20.25 22.2466C20.25 22.545 20.1315 22.8311 19.9205 23.0421C19.7095 23.2531 19.4234 23.3716 19.125 23.3716H12.375C12.0766 23.3716 11.7905 23.2531 11.5795 23.0421C11.3685 22.8311 11.25 22.545 11.25 22.2466C11.25 21.9482 11.3685 21.6621 11.5795 21.4511C11.7905 21.2401 12.0766 21.1216 12.375 21.1216H19.125C19.4234 21.1216 19.7095 21.2401 19.9205 21.4511C20.1315 21.6621 20.25 21.9482 20.25 22.2466ZM20.25 26.7466C20.25 27.045 20.1315 27.3311 19.9205 27.5421C19.7095 27.7531 19.4234 27.8716 19.125 27.8716H12.375C12.0766 27.8716 11.7905 27.7531 11.5795 27.5421C11.3685 27.3311 11.25 27.045 11.25 26.7466C11.25 26.4482 11.3685 26.1621 11.5795 25.9511C11.7905 25.7401 12.0766 25.6216 12.375 25.6216H19.125C19.4234 25.6216 19.7095 25.7401 19.9205 25.9511C20.1315 26.1621 20.25 26.4482 20.25 26.7466Z" fill="#027CD5"/>
</svg>
