<svg width="36" height="36" viewBox="0 0 36 36" fill="none" xmlns="http://www.w3.org/2000/svg">
<path d="M32.4731 30.684C30.3314 26.9813 27.0309 24.3263 23.1792 23.0677C25.0844 21.9335 26.5647 20.2053 27.3926 18.1484C28.2205 16.0915 28.3504 13.8197 27.7622 11.6818C27.1741 9.544 25.9004 7.65834 24.1368 6.31443C22.3732 4.97052 20.2172 4.24268 18 4.24268C15.7827 4.24268 13.6267 4.97052 11.8631 6.31443C10.0995 7.65834 8.82585 9.544 8.23768 11.6818C7.64951 13.8197 7.77937 16.0915 8.60731 18.1484C9.43525 20.2053 10.9155 21.9335 12.8207 23.0677C8.96902 24.3249 5.66855 26.9799 3.52683 30.684C3.44829 30.8121 3.39619 30.9546 3.37362 31.1031C3.35104 31.2516 3.35844 31.4032 3.39538 31.5488C3.43232 31.6944 3.49805 31.8311 3.58869 31.9509C3.67934 32.0707 3.79306 32.1712 3.92314 32.2463C4.05323 32.3215 4.19705 32.3698 4.34612 32.3884C4.49519 32.4071 4.64648 32.3957 4.79108 32.3549C4.93567 32.3142 5.07064 32.2449 5.18801 32.1511C5.30539 32.0573 5.4028 31.941 5.47448 31.809C8.12386 27.2302 12.8067 24.4965 18 24.4965C23.1932 24.4965 27.876 27.2302 30.5254 31.809C30.5971 31.941 30.6945 32.0573 30.8119 32.1511C30.9293 32.2449 31.0642 32.3142 31.2088 32.3549C31.3534 32.3957 31.5047 32.4071 31.6538 32.3884C31.8029 32.3698 31.9467 32.3215 32.0768 32.2463C32.2068 32.1712 32.3206 32.0707 32.4112 31.9509C32.5019 31.8311 32.5676 31.6944 32.6045 31.5488C32.6415 31.4032 32.6489 31.2516 32.6263 31.1031C32.6037 30.9546 32.5516 30.8121 32.4731 30.684ZM10.125 14.3715C10.125 12.814 10.5868 11.2914 11.4521 9.99639C12.3174 8.70135 13.5474 7.69199 14.9863 7.09595C16.4253 6.49991 18.0087 6.34396 19.5363 6.64782C21.0639 6.95168 22.4671 7.7017 23.5684 8.80303C24.6698 9.90437 25.4198 11.3076 25.7236 12.8352C26.0275 14.3628 25.8715 15.9462 25.2755 17.3851C24.6795 18.8241 23.6701 20.054 22.3751 20.9193C21.08 21.7846 19.5575 22.2465 18 22.2465C15.9121 22.2443 13.9103 21.4139 12.434 19.9375C10.9576 18.4611 10.1272 16.4594 10.125 14.3715Z" fill="#027CD5"/>
</svg>
